PathFileType	4	(X/Y/Z)	D:\luciana\demolition.trc
DataRate	CameraRate	NumFrames	NumMarkers	Units	OrigDataRate	OrigDataStartFrame	OrigNumFrames
250.00	250.00	6	18	mm	250.00	150	1806
Frame#	Time	pelvisR			Trunk1			Trunk2			Trunk3			C7			shoulder			upperArm1			upperArm2			upperArm3			elbow			forearm1			forearm2			forearm3			wrist1			wrist2			wrist3			Object			Hand			
		X1	Y1	Z1	X2	Y2	Z2	X3	Y3	Z3	X4	Y4	Z4	X5	Y5	Z5	X6	Y6	Z6	X7	Y7	Z7	X8	Y8	Z8	X9	Y9	Z9	X10	Y10	Z10	X11	Y11	Z11	X12	Y12	Z12	X13	Y13	Z13	X14	Y14	Z14	X15	Y15	Z15	X16	Y16	Z16	X17	Y17	Z17	X18	Y18	Z18	

149	0.596000	1705.724597	656.612515	694.974303	1485.549331	873.288274	606.028080	1549.038887	821.691990	605.193615	1460.042953	781.508923	605.347812	1547.157288	1135.734558	784.622431	1722.345829	1062.545538	753.149569	1815.419555	914.122283	742.582977	1844.551444	909.581900	819.638252	1782.630801	890.036583	859.114766	1839.383364	777.876973	821.183503	1912.605286	722.495854	822.758377	1862.800717	689.557433	767.313957	1915.305972	796.080112	804.236889	2030.209064	714.096785	739.330292	1991.403580	689.001441	673.742473	2019.674778	787.452638	741.556525	2107.551575	761.627316	639.096379	2095.166683	713.774025	646.854401	
150	0.600000	1705.722570	656.617165	694.971621	1485.563993	873.262823	606.032848	1549.441695	821.471632	605.573356	1461.491108	780.087411	605.263114	1547.152996	1135.734081	784.613669	1722.346306	1062.545776	753.149807	1815.404654	914.115608	742.556691	1844.550133	909.576058	819.634974	1782.626390	890.033126	859.113455	1839.362025	777.863979	821.175277	1912.609100	722.492576	822.764456	1862.789631	689.543784	767.313004	1915.293217	796.069741	804.206669	2030.202389	714.085519	739.324093	1991.389275	688.984513	673.744738	2019.666433	787.437499	741.548657	2107.542515	761.608243	639.087260	2095.157385	713.763356	646.845460	
151	0.604000	1705.731511	656.621099	694.975376	1485.567689	873.235464	606.025159	1549.342155	821.315289	605.404258	1461.849451	779.705882	605.259180	1547.166467	1135.733724	784.597218	1722.347975	1062.540412	753.130555	1815.397382	914.097607	742.558002	1844.554663	909.565508	819.631100	1782.619953	890.024185	859.106660	1839.355826	777.850151	821.164072	1912.590981	722.468317	822.766364	1862.784386	689.532042	767.316461	1915.283918	796.046019	804.206967	2030.198097	714.065433	739.319563	1991.384268	688.964725	673.736155	2019.659281	787.416697	741.547167	2107.536554	761.584580	639.083326	2095.149040	713.758945	646.857500	
152	0.608000	1705.733657	656.621575	694.971561	1485.602379	873.214483	606.014311	1549.292684	821.251869	605.322480	1461.928368	779.613674	605.282605	1547.170877	1135.733008	784.587026	1722.362638	1062.537432	753.111005	1815.396070	914.080560	742.555261	1844.561219	909.550309	819.610715	1782.633305	890.010297	859.099865	1839.353323	777.843714	821.155429	1912.592649	722.467184	822.766483	1862.776041	689.526200	767.314136	1915.286064	796.029150	804.208279	2030.199289	714.044154	739.320755	1991.389632	688.940108	673.749924	2019.651413	787.394404	741.540968	2107.527494	761.557579	639.071703	2095.138073	713.714361	646.838784	
153	0.612000	1705.729842	656.616449	694.980323	1485.519767	873.314977	606.006920	1549.276471	821.234047	605.308414	1461.957455	779.587328	605.291188	1547.176600	1135.740638	784.578085	1722.373247	1062.528729	753.105342	1815.398693	914.069653	742.548585	1844.556928	909.537435	819.600403	1782.639027	890.001953	859.084368	1839.341402	777.824700	821.148813	1912.594914	722.457588	822.755814	1862.767100	689.512730	767.310560	1915.269017	796.012402	804.201245	2030.191660	714.022875	739.318371	1991.347671	688.897491	673.746943	2019.637585	787.381887	741.528630	2107.518911	761.533618	639.057279	2095.143557	713.685989	646.851659	
154	0.616000	1705.740929	656.612098	694.992781	1485.306025	873.527586	605.996072	1549.269319	821.229577	605.309248	1461.958647	779.576719	605.307341	1547.172427	1135.732889	784.560084	1722.386360	1062.520266	753.089726	1815.405250	914.067090	742.534161	1844.548464	909.521341	819.587708	1782.637000	889.993548	859.064341	1839.327097	777.815640	821.148574	1912.596464	722.450376	822.757483	1862.757921	689.498425	767.306924	1915.257215	795.987964	804.195106	2030.175447	713.997126	739.306808	1991.352558	688.866019	673.771977	2019.632816	787.364066	741.523623	2107.514381	761.516213	639.052570	2095.132828	713.666379	646.851540	
